<svg viewBox="0 0 24 24" fill="none" xmlns="http://www.w3.org/2000/svg">
    <path d="M9 19C9 19.5304 9.21071 20.0391 9.58579 20.4142C9.96086 20.7893 10.4696 21 11 21H13C13.5304 21 14.0391 20.7893 14.4142 20.4142C14.7893 20.0391 15 19.5304 15 19M12 3C10.8181 3 9.64778 3.23279 8.55585 3.68508C7.46392 4.13738 6.47177 4.80031 5.63604 5.63604C3.94821 7.32387 3 9.61305 3 12C3 15.0902 4.71 17.206 6.34 18.6C7.01 19.148 7.5 19.5 7.5 19.5C7.5 19.5 8 20 8 21H16C16 20 16.5 19.5 16.5 19.5C16.5 19.5 16.99 19.148 17.66 18.6C19.29 17.206 21 15.0902 21 12C21 9.61305 20.0518 7.32387 18.364 5.63604C16.6761 3.94821 14.3869 3 12 3Z" stroke="white" stroke-width="2" stroke-linecap="round" stroke-linejoin="round"/>
</svg>
