<svg viewBox="0 0 24 24" fill="none" xmlns="http://www.w3.org/2000/svg">
    <path d="M23 4V10H17M1 20V14H7M20.49 15C19.9828 16.4332 19.1209 17.7146 17.9845 18.7246C16.8482 19.7346 15.4745 20.4402 13.9917 20.7757C12.5089 21.1112 10.9652 21.0657 9.50481 20.6432C8.04437 20.2208 6.71475 19.4353 5.64 18.36L1 14M23 10L18.36 5.64C17.2853 4.56471 15.9556 3.77921 14.4952 3.35677C13.0348 2.93434 11.4911 2.88875 10.0083 3.22426C8.52547 3.55976 7.1518 4.26543 6.01547 5.27542C4.87913 6.28541 4.01717 7.56678 3.51 9" stroke="currentColor" stroke-width="2" stroke-linecap="round" stroke-linejoin="round"/>
</svg>
